Coordinates
version=1
nRows=14
nColumns=46
inDegrees=yes

Units are S.I. units (second, meters, Newtons, ...)
Angles are in degrees.

endheader
time	pelvis_tilt	pelvis_list	pelvis_rotation	pelvis_tx	pelvis_ty	pelvis_tz	bb_angle	bb_tx	bb_ty	bb_tz	hip_flexion_r	hip_adduction_r	hip_rotation_r	knee_angle_r	knee_angle_r_beta	ankle_angle_r	subtalar_angle_r	mtp_angle_r	crank_angle_r	hip_flexion_l	hip_adduction_l	hip_rotation_l	knee_angle_l	knee_angle_l_beta	ankle_angle_l	subtalar_angle_l	mtp_angle_l	crank_angle_l	lumbar_extension	lumbar_bending	lumbar_rotation	arm_flex_r	arm_add_r	arm_rot_r	elbow_flex_r	pro_sup_r	wrist_flex_r	wrist_dev_r	arm_flex_l	arm_add_l	arm_rot_l	elbow_flex_l	pro_sup_l	wrist_flex_l	wrist_dev_l
      0.00500000	    -16.73687187	     -3.40674810	     -5.29478139	      0.09399113	      1.14317485	     -0.25554224	      0.00000000	      0.50000000	      0.00000000	      0.25000000	     62.40700957	     -0.16414595	     -7.74159977	     48.58352852	      0.84794253	      8.45744502	      1.06098396	      0.00000000	      0.00000000	     71.25658411	    -12.86747331	      3.10577356	    101.95961572	      1.77953100	     16.86637331	     -0.93657450	      0.00000000	      0.00000000	    -52.15102469	      0.45138009	      6.91330489	     89.85452627	      1.04018041	     16.11843850	     38.57580853	     18.47155823	      0.00000000	      0.00000000	     89.81061054	      4.31843676	     18.42226495	     36.09561970	     18.52009762	      0.00000000	      0.00000000
      0.01000000	    -16.69165617	     -3.44137805	     -5.27918713	      0.09398640	      1.14327695	     -0.25553715	      0.00000000	      0.50000000	      0.00000000	      0.25000000	     62.41872500	     -0.16557037	     -7.78401236	     48.63610446	      0.84886016	      8.54553705	      1.32769924	      0.00000000	      0.00000000	     71.15657941	    -12.87757282	      3.12456152	    101.87919390	      1.77812737	     16.86687807	     -0.90604056	      0.00000000	      0.00000000	    -52.20307070	      0.48566607	      6.92755879	     89.85492197	      1.15235155	     15.72970865	     38.25440083	     20.29791948	      0.00000000	      0.00000000	     89.81093802	      4.41821151	     17.97797423	     35.77032400	     20.34709895	      0.00000000	      0.00000000
      0.01500000	    -16.72764363	     -3.41108987	     -5.30753656	      0.09393584	      1.14317864	     -0.25549833	      0.00000000	      0.50000000	      0.00000000	      0.25000000	     62.57011917	     -0.16190282	     -7.72400823	     48.77836423	      0.85134306	      8.49992351	      1.25188396	      0.00000000	      0.00000000	     71.13236640	    -12.87768325	      3.07365860	    101.81494301	      1.77700598	     16.82020448	     -1.02025226	      0.00000000	      0.00000000	    -52.15030021	      0.45025187	      6.94102444	     89.85503098	      0.93509369	     16.40827016	     38.73591472	     17.45294790	      0.00000000	      0.00000000	     89.81038073	      4.27284100	     18.68070756	     36.17487098	     17.97460446	      0.00000000	      0.00000000
      0.02000000	    -16.68854721	     -3.37404474	     -5.30496873	      0.09389733	      1.14332766	     -0.25551585	      0.00000000	      0.50000000	      0.00000000	      0.25000000	     62.61858277	     -0.20524291	     -7.69670001	     48.89357397	      0.85335385	      8.45450755	      1.29645712	      0.00000000	      0.00000000	     70.97627152	    -12.80451962	      3.02122655	    101.70279833	      1.77504869	     16.92642835	     -1.14375281	      0.00000000	      0.00000000	    -52.20447962	      0.43791388	      6.85341116	     89.85484726	      1.09788253	     16.18867093	     38.69127597	     17.68968416	      0.00000000	      0.00000000	     89.81125028	      4.27201040	     18.37781668	     36.17747592	     18.15519020	      0.00000000	      0.00000000
      0.02500000	    -16.74447823	     -3.42469650	     -5.27280483	      0.09389006	      1.14301566	     -0.25554350	      0.00000000	      0.50000000	      0.00000000	      0.25000000	     62.77531338	     -0.18456922	     -7.68704847	     49.04727996	      0.85603652	      8.49832299	      1.11168515	      0.00000000	      0.00000000	     71.01196130	    -12.76210396	      3.10709847	    101.67127799	      1.77449856	     16.95190123	     -1.14678818	      0.00000000	      0.00000000	    -52.16041439	      0.52170886	      6.95717406	     89.85444800	      1.19442116	     15.46409056	     38.19541036	     20.79279289	      0.00000000	      0.00000000	     89.81059248	      4.49192235	     17.59601727	     35.70421990	     21.17755671	      0.00000000	      0.00000000
      0.03000000	    -16.75133364	     -3.37854229	     -5.31814450	      0.09387314	      1.14302072	     -0.25542952	      0.00000000	      0.50000000	      0.00000000	      0.25000000	     62.88610973	     -0.18686480	     -7.64166183	     49.17431056	      0.85825363	      8.46518427	      1.14776760	      0.00000000	      0.00000000	     70.96238862	    -12.80307693	      3.00148031	    101.59816161	      1.77322243	     16.83123555	     -1.36848370	      0.00000000	      0.00000000	    -52.12996639	      0.44944561	      6.87763889	     89.85493518	      1.14559388	     15.72367435	     37.57681048	     23.41442645	      0.00000000	      0.00000000	     89.81052156	      4.36402989	     17.77087415	     35.10791528	     23.83642369	      0.00000000	      0.00000000
      0.03500000	    -16.55501048	     -3.68115342	     -5.34399850	      0.09402307	      1.14358689	     -0.25529508	      0.00000000	      0.50000000	      0.00000000	      0.25000000	     62.60496902	      0.04492713	     -7.85164397	     49.07630986	      0.85654319	      8.35650947	      1.01605553	      0.00000000	      0.00000000	     70.74288968	    -13.03593241	      3.26351474	    101.58077006	      1.77291889	     16.83771936	     -1.01335160	      0.00000000	      0.00000000	    -52.48256406	      0.65489891	      7.16134887	     89.85576065	      1.58551302	     14.02651491	     37.27368465	     27.61104954	      0.00000000	      0.00000000	     89.80793765	      4.69055880	     15.97038120	     34.85061116	     27.95015196	      0.00000000	      0.00000000
      0.04000000	    -16.70607173	     -3.42522225	     -5.31652624	      0.09389186	      1.14306211	     -0.25537407	      0.00000000	      0.50000000	      0.00000000	      0.25000000	     63.00043174	     -0.16923591	     -7.66008187	     49.40067303	      0.86220440	      8.42040677	      1.07121252	      0.00000000	      0.00000000	     70.81321385	    -12.83695098	      3.02639753	    101.48316270	      1.77121532	     16.89010111	     -1.21063100	      0.00000000	      0.00000000	    -52.17449301	      0.47129263	      6.92333185	     89.85496865	      0.94484392	     16.45425497	     38.80086836	     17.28912641	      0.00000000	      0.00000000	     89.81046340	      4.20156091	     18.57475523	     36.15991769	     18.24964737	      0.00000000	      0.00000000
      0.04500000	    -16.70215820	     -3.46051650	     -5.30321131	      0.09384971	      1.14305661	     -0.25539993	      0.00000000	      0.50000000	      0.00000000	      0.25000000	     63.07765354	     -0.16477700	     -7.68339890	     49.50394136	      0.86400677	      8.36987001	      1.00372821	      0.00000000	      0.00000000	     70.76671152	    -12.82892596	      3.07740073	    101.42517033	      1.77020317	     16.92778110	     -1.08585645	      0.00000000	      0.00000000	    -52.20419851	      0.51335927	      6.97934074	     89.85444112	      1.18325408	     15.37961811	     38.20782652	     21.04095858	      0.00000000	      0.00000000	     89.81066029	      4.49448753	     17.48878590	     35.52732856	     21.80394695	      0.00000000	      0.00000000
      0.05000000	    -16.70156711	     -3.42352276	     -5.33767419	      0.09386010	      1.14298470	     -0.25530252	      0.00000000	      0.50000000	      0.00000000	      0.25000000	     63.18747549	     -0.16440215	     -7.63410951	     49.65293610	      0.86660722	      8.35591041	      0.99203980	      0.00000000	      0.00000000	     70.71869229	    -12.86488689	      3.01507654	    101.38225067	      1.76945408	     16.91446636	     -1.07180833	      0.00000000	      0.00000000	    -52.18605011	      0.46288854	      6.92796007	     89.85448207	      1.22415630	     15.39837011	     37.91109611	     22.24951062	      0.00000000	      0.00000000	     89.81113394	      4.45611183	     17.45384402	     35.28026129	     22.93575964	      0.00000000	      0.00000000
      0.05500000	    -16.69065055	     -3.43665732	     -5.34219177	      0.09384560	      1.14302764	     -0.25529335	      0.00000000	      0.50000000	      0.00000000	      0.25000000	     63.25297735	     -0.16307970	     -7.64495493	     49.75508471	      0.86839005	      8.30572038	      0.94345783	      0.00000000	      0.00000000	     70.66110412	    -12.87560692	      3.00492546	    101.32847936	      1.76851559	     16.90051159	     -1.15141595	      0.00000000	      0.00000000	    -52.18152320	      0.46969132	      6.93409104	     89.85528220	      0.93291097	     16.54498354	     38.70655358	     17.78186662	      0.00000000	      0.00000000	     89.81036881	      4.18050409	     18.57536868	     36.07656771	     18.60053618	      0.00000000	      0.00000000
      0.06000000	    -16.68350169	     -3.43543981	     -5.34332365	      0.09382040	      1.14298747	     -0.25524658	      0.00000000	      0.50000000	      0.00000000	      0.25000000	     63.32540240	     -0.15371673	     -7.60728113	     49.84974635	      0.87004221	      8.30108737	      0.86668400	      0.00000000	      0.00000000	     70.61012649	    -12.88368531	      2.99134326	    101.27207959	      1.76753123	     16.90985625	     -1.09984931	      0.00000000	      0.00000000	    -52.17908096	      0.46942263	      6.91931383	     89.85550631	      0.82027455	     16.81927971	     38.03411069	     21.04234978	      0.00000000	      0.00000000	     89.81111563	      4.02973688	     18.86530253	     35.46244824	     21.74127344	      0.00000000	      0.00000000
      0.06500000	    -16.70086099	     -3.43307631	     -5.34248033	      0.09382248	      1.14294301	     -0.25529058	      0.00000000	      0.50000000	      0.00000000	      0.25000000	     63.43663383	     -0.18592162	     -7.65295658	     49.97671799	      0.87225828	      8.25327052	      0.82653484	      0.00000000	      0.00000000	     70.58059558	    -12.87724504	      2.96227483	    101.22059791	      1.76663270	     16.89989821	     -1.14751422	      0.00000000	      0.00000000	    -52.16882795	      0.46211488	      6.94183887	     89.85503757	      1.12521314	     15.62666956	     37.59871809	     23.78386929	      0.00000000	      0.00000000	     89.81091309	      4.38884338	     17.63100689	     34.96233842	     24.37595325	      0.00000000	      0.00000000
      0.07000000	    -16.66340774	     -3.44072081	     -5.36425409	      0.09380700	      1.14298462	     -0.25521579	      0.00000000	      0.50000000	      0.00000000	      0.25000000	     63.48220212	     -0.15797775	     -7.61152371	     50.09074081	      0.87424835	      8.22598730	      0.85051920	      0.00000000	      0.00000000	     70.49082026	    -12.90164736	      2.96176742	    101.16123248	      1.76559658	     16.88637535	     -1.15576613	      0.00000000	      0.00000000	    -52.20534572	      0.47510964	      6.95580051	     89.85512568	      0.95536143	     16.52061024	     38.82415436	     17.30556034	      0.00000000	      0.00000000	     89.80964376	      4.16335695	     18.55139565	     36.15702342	     18.13790720	      0.00000000	      0.00000000
